PathFileType	4	(X/Y/Z)	c:/Users/goper/Files/vsCode/490R/osim_files/C11/C11_Slow_04.trc
DataRate	CameraRate	NumFrames	NumMarkers	Units                	OrigDataRate	OrigDataStartFrame	OrigNumFrames
120.00	120.00	5	36	mm	120.0	513	1367
                Frame#	Time	LPSIS			LASIS			LTH1			LTH2			LTH3			LTH4			LLFE			LMFE			LSH1			LSH2			LSH3			LSH4			LLMAL			LMMAL			LCAL			LMTP5			LTOE			LMTP1			RPSIS			RASIS			RTH1			RTH2			RTH3			RTH4			RLFE			RMFE			RSH1			RSH2			RSH3			RSH4			RLMAL			RMMAL			RCAL			RMTP1			RTOE			RMTP5		
		X1	Y1	Z1	X2	Y2	Z2	X3	Y3	Z3	X4	Y4	Z4	X5	Y5	Z5	X6	Y6	Z6	X7	Y7	Z7	X8	Y8	Z8	X9	Y9	Z9	X10	Y10	Z10	X11	Y11	Z11	X12	Y12	Z12	X13	Y13	Z13	X14	Y14	Z14	X15	Y15	Z15	X16	Y16	Z16	X17	Y17	Z17	X18	Y18	Z18	X19	Y19	Z19	X20	Y20	Z20	X21	Y21	Z21	X22	Y22	Z22	X23	Y23	Z23	X24	Y24	Z24	X25	Y25	Z25	X26	Y26	Z26	X27	Y27	Z27	X28	Y28	Z28	X29	Y29	Z29	X30	Y30	Z30	X31	Y31	Z31	X32	Y32	Z32	X33	Y33	Z33	X34	Y34	Z34	X35	Y35	Z35	X36	Y36	Z36

513	4.26667	2140.33081	1002.81488	274.63086	0.00000	0.00000	0.00000	0.00000	0.00000	0.00000	0.00000	0.00000	0.00000	1876.62854	647.26935	414.33997	1859.83044	602.49799	409.61777	0.00000	0.00000	0.00000	1856.21960	534.64331	405.13098	0.00000	0.00000	0.00000	1872.42505	381.40579	420.44177	1822.40247	435.32996	424.58536	1823.42322	389.49368	425.48907	1809.42212	117.49603	384.80264	1781.60046	134.88123	292.43866	1857.71606	70.08025	329.64047	1690.15808	81.47889	415.67990	1623.66333	116.45852	349.43750	1657.43945	89.74415	304.88800	2135.24316	1017.77423	189.57535	1969.09473	991.92676	110.85868	0.00000	0.00000	0.00000	2033.16577	590.36230	99.63745	2085.43555	638.33167	79.70888	2085.75488	595.12872	87.40708	2082.66479	507.39432	107.76366	2110.98071	498.63171	220.66855	2161.33838	404.74582	97.04812	2163.20605	360.19574	102.06721	0.00000	0.00000	0.00000	0.00000	0.00000	0.00000	2169.49097	98.98743	171.16783	2142.30811	112.59142	264.93515	2231.35596	65.02886	227.39003	2015.18628	55.21383	242.82658	2012.03943	67.08407	194.49222	2053.74756	44.48132	134.07765
514	4.27500	2132.77100	1001.76764	274.96970	0.00000	0.00000	0.00000	0.00000	0.00000	0.00000	0.00000	0.00000	0.00000	1870.22949	644.63934	413.18771	1854.24097	600.28790	409.87488	0.00000	0.00000	0.00000	1850.57104	531.90814	405.65796	0.00000	0.00000	0.00000	1862.51172	378.15140	419.90390	1813.92505	433.49252	424.77548	1812.73596	387.36075	425.26358	1785.86206	116.63796	383.32162	1758.65039	135.88503	291.32761	1831.65637	67.31504	327.71475	1665.00354	86.23267	414.39941	1600.18909	124.95992	348.61734	1633.20642	96.74491	303.43616	2128.13110	1016.79065	189.95331	1962.21924	990.77228	110.75660	0.00000	0.00000	0.00000	2029.11682	589.62512	99.54707	2081.76660	638.33575	78.97063	2081.83447	594.81836	87.34528	2079.15771	506.12436	107.46642	2107.32617	498.25775	220.61148	2158.90210	404.93973	97.13392	2161.22095	360.42593	102.14185	0.00000	0.00000	0.00000	0.00000	0.00000	0.00000	2169.43408	99.07807	171.29092	2142.01855	112.32423	264.82104	2231.34595	65.08746	227.41901	2015.09644	55.07222	242.76340	2011.92139	66.75771	194.53690	2053.64478	44.28820	134.05457
515	4.28333	2125.04761	1000.57043	275.37949	0.00000	0.00000	0.00000	0.00000	0.00000	0.00000	0.00000	0.00000	0.00000	1864.23157	642.35876	413.29544	1848.59229	597.93390	410.14523	0.00000	0.00000	0.00000	1845.16333	529.24719	406.31580	1864.96680	420.07217	418.29880	1853.06641	374.91135	419.18698	1805.92517	431.50897	425.00531	1802.71228	385.30692	425.10739	1763.19666	116.26929	381.34744	1736.45337	137.65576	289.85132	1806.33728	65.37279	325.02069	1641.48999	91.27261	413.25040	1578.03430	133.83107	348.09024	1608.37012	105.82758	301.60300	2120.95435	1015.71454	190.41206	1955.28455	989.63580	110.56652	0.00000	0.00000	0.00000	2024.75586	588.91986	99.37330	2076.71973	637.70953	79.59667	2076.40503	593.25543	88.16708	2074.69873	507.11890	105.81403	2103.40796	498.00543	220.63133	2156.12451	405.09833	97.24930	2158.77686	360.59274	102.24796	0.00000	0.00000	0.00000	0.00000	0.00000	0.00000	2169.36426	99.20558	171.40094	2141.79712	112.19786	264.79105	2231.27979	65.17764	227.47876	2014.97668	54.89074	242.70773	2011.80334	66.53777	194.53777	2053.59790	44.19058	133.99393
516	4.29167	2117.19727	999.26569	275.80975	0.00000	0.00000	0.00000	0.00000	0.00000	0.00000	0.00000	0.00000	0.00000	1858.27368	639.88025	413.42178	1843.00085	595.46381	410.42932	0.00000	0.00000	0.00000	1839.98962	526.45032	406.89636	1856.94031	415.85162	417.38748	1843.99146	371.72354	418.21454	1797.24402	428.18652	425.37439	1793.42432	383.28497	424.88120	1741.72974	116.39330	378.97366	1715.09119	140.10083	288.09000	1781.90430	64.29903	321.56073	1619.67847	96.37728	411.84451	1557.49976	142.52974	347.67590	1586.09375	113.72163	300.47806	2113.70947	1014.58813	190.87965	1948.40881	988.55170	110.21684	0.00000	0.00000	0.00000	2020.08594	588.23431	99.20272	2071.78540	637.27875	79.59403	2072.88354	594.07874	87.32774	2070.44141	506.44473	105.91199	2098.99731	497.71124	220.73405	2153.03174	405.27036	97.39285	2155.99585	360.67032	102.44244	0.00000	0.00000	0.00000	0.00000	0.00000	0.00000	2169.19971	99.31168	171.55760	2141.58203	112.10397	264.77402	2231.20532	65.29933	227.54120	2014.84583	54.69828	242.65717	2011.67834	66.34596	194.54086	2053.52930	44.10083	133.92819
517	4.30000	2109.28906	997.87744	276.28354	0.00000	0.00000	0.00000	0.00000	0.00000	0.00000	0.00000	0.00000	0.00000	1852.38245	637.35651	413.64017	1837.64966	592.99463	410.71335	0.00000	0.00000	0.00000	1834.94238	523.59277	407.37296	1849.09937	411.72189	416.23669	1835.29956	368.65164	417.03058	1791.19031	427.23215	425.34647	1784.63513	381.39578	424.59207	1721.47693	116.69966	376.26172	1694.25159	143.24431	286.42358	1758.58447	63.99031	317.33923	1598.18665	101.32318	410.03653	1536.99011	154.08621	347.54434	1564.71033	122.13374	300.15323	2106.32178	1013.25348	191.44609	1941.45850	987.49579	109.83659	0.00000	0.00000	0.00000	2015.03894	587.43494	99.05173	2066.56885	636.78589	79.61897	2067.86133	593.57910	87.36499	2065.77710	505.76288	106.02834	2094.14233	497.32120	220.85379	2149.55444	405.39130	97.59032	2152.99121	360.83456	102.65729	0.00000	0.00000	0.00000	0.00000	0.00000	0.00000	2169.02417	99.47845	171.71115	2141.33276	112.04944	264.78922	2231.06958	65.41983	227.60542	2014.70251	54.48179	242.62459	2012.27026	66.48176	193.23413	2053.44678	44.00291	133.89192
